<?xml version="1.0" encoding="utf-8"?><svg xml:space="preserve" viewBox="0 0 100 100" y="0" x="0" xmlns="http://www.w3.org/2000/svg" id="圖層_1" version="1.1" width="200px" height="200px" xmlns:xlink="http://www.w3.org/1999/xlink" style="width:100%;height:100%;background-size:initial;background-repeat-y:initial;background-repeat-x:initial;background-position-y:initial;background-position-x:initial;background-origin:initial;background-image:initial;background-color:rgb(255, 255, 255);background-clip:initial;background-attachment:initial;animation-play-state:paused" ><g class="ldl-scale" style="transform-origin:50% 50%;transform:rotate(0deg) scale(0.8, 0.8);animation-play-state:paused" ><path stroke-miterlimit="10" stroke-width="3.5" stroke="#333" fill="#66503a" d="M87.1 53.3H12.9c-1.6 0-2.9-1.3-2.9-2.9v-5.1c0-1.6 1.3-2.9 2.9-2.9h74.2c1.6 0 2.9 1.3 2.9 2.9v5.1c0 1.6-1.3 2.9-2.9 2.9z" style="stroke:rgb(51, 51, 51);fill:rgb(102, 80, 58);animation-play-state:paused" ></path>
<path stroke-miterlimit="10" stroke-width="3.5" stroke="#333" fill="#66503a" d="M87.1 74H12.9c-1.6 0-2.9-1.3-2.9-3v-5.1c0-1.6 1.3-2.9 2.9-2.9h74.2c1.6 0 2.9 1.3 2.9 2.9V71c0 1.7-1.3 3-2.9 3z" style="stroke:rgb(51, 51, 51);fill:rgb(102, 80, 58);animation-play-state:paused" ></path>
<path d="M14.4 53.3h71.2V63H14.4z" stroke-miterlimit="10" stroke-width="3.5" stroke="#333" fill="#abbc80" style="stroke:rgb(51, 51, 51);fill:rgb(171, 188, 128);animation-play-state:paused" ></path>
<path stroke-miterlimit="10" stroke-width="3.5" stroke="#333" fill="#f7b16a" d="M64.9 15H35.1c-11.4 0-20.7 9.3-20.7 20.7v6.7h71.2v-6.7c0-11.5-9.2-20.7-20.7-20.7z" style="stroke:rgb(51, 51, 51);fill:rgb(247, 177, 106);animation-play-state:paused" ></path>
<path stroke-miterlimit="10" stroke-width="3.5" stroke="#333" fill="#f7b16a" d="M75.2 86H24.8c-5.7 0-10.4-4.7-10.4-10.4V74h71.2v1.6C85.6 81.4 81 86 75.2 86z" style="stroke:rgb(51, 51, 51);fill:rgb(247, 177, 106);animation-play-state:paused" ></path>
<path fill="#f3e5c7" d="M39.9 31.7c-.6-1.5.1-3.2.8-3.5s2.4.4 3.1 1.9.3 3-.8 3.5-2.4-.4-3.1-1.9z" style="fill:rgb(243, 229, 199);animation-play-state:paused" ></path>
<path fill="#f3e5c7" d="M49.8 36.1c-.6-1.5.1-3.2.8-3.5.6-.3 2.4.4 3.1 1.9s.3 3-.8 3.5c-1.1.4-2.5-.4-3.1-1.9z" style="fill:rgb(243, 229, 199);animation-play-state:paused" ></path>
<path fill="#f3e5c7" d="M61.4 28.4c-.8 1.3-2.6 1.7-3.2 1.3-.6-.4-1-2.1-.2-3.4.8-1.3 2.2-1.9 3.2-1.3.9.6 1 2.1.2 3.4z" style="fill:rgb(243, 229, 199);animation-play-state:paused" ></path>
<path fill="#f3e5c7" d="M70.8 22.2c1.4.8 1.9 2.7 1.6 3.3-.3.6-2.2 1.2-3.6.4-1.4-.8-2.1-2.3-1.6-3.3s2.2-1.2 3.6-.4z" style="fill:rgb(243, 229, 199);animation-play-state:paused" ></path>
<path fill="#f3e5c7" d="M24.1 34.1c1.3 1.1 1.5 3.1 1 3.7-.5.6-2.5.9-3.8-.2-1.3-1.1-1.8-2.7-1-3.7s2.5-.9 3.8.2z" style="fill:rgb(243, 229, 199);animation-play-state:paused" ></path>
<path fill="#f3e5c7" d="M31.7 25.7c.4 1.6-.6 3.3-1.2 3.5-.7.2-2.4-.7-2.9-2.3-.4-1.6.1-3.1 1.2-3.5 1.2-.3 2.5.7 2.9 2.3z" style="fill:rgb(243, 229, 199);animation-play-state:paused" ></path>
<path fill="#f3e5c7" d="M43.1 22.1c-.5 1.5-2.3 2.3-3 2.1-.7-.2-1.6-1.9-1-3.5.5-1.5 1.9-2.5 3-2.1s1.6 2 1 3.5z" style="fill:rgb(243, 229, 199);animation-play-state:paused" ></path>
<path fill="#f3e5c7" d="M76.2 37.1c-1.5-.3-2.5-1.8-2.4-2.5.1-.6 1.6-1.7 3.1-1.4s2.6 1.4 2.4 2.5-1.6 1.6-3.1 1.4z" style="fill:rgb(243, 229, 199);animation-play-state:paused" ></path>
<path d="M18.5 47.9v4.9" stroke-miterlimit="10" stroke-width="3.5" stroke="#333" stroke-linecap="round" fill="none" style="stroke:rgb(51, 51, 51);animation-play-state:paused" ></path>
<path d="M26.4 43.3v5" stroke-miterlimit="10" stroke-width="3.5" stroke="#333" stroke-linecap="round" fill="none" style="stroke:rgb(51, 51, 51);animation-play-state:paused" ></path>
<path d="M34.5 47.9v4.9" stroke-miterlimit="10" stroke-width="3.5" stroke="#333" stroke-linecap="round" fill="none" style="stroke:rgb(51, 51, 51);animation-play-state:paused" ></path>
<path d="M42.4 43.3v5" stroke-miterlimit="10" stroke-width="3.5" stroke="#333" stroke-linecap="round" fill="none" style="stroke:rgb(51, 51, 51);animation-play-state:paused" ></path>
<path d="M50.5 47.9v4.9" stroke-miterlimit="10" stroke-width="3.5" stroke="#333" stroke-linecap="round" fill="none" style="stroke:rgb(51, 51, 51);animation-play-state:paused" ></path>
<path d="M58.4 43.3v5" stroke-miterlimit="10" stroke-width="3.5" stroke="#333" stroke-linecap="round" fill="none" style="stroke:rgb(51, 51, 51);animation-play-state:paused" ></path>
<path d="M30 68.3v4.9" stroke-miterlimit="10" stroke-width="3.5" stroke="#333" stroke-linecap="round" fill="none" style="stroke:rgb(51, 51, 51);animation-play-state:paused" ></path>
<path d="M38 63.7v5" stroke-miterlimit="10" stroke-width="3.5" stroke="#333" stroke-linecap="round" fill="none" style="stroke:rgb(51, 51, 51);animation-play-state:paused" ></path>
<path d="M46 68.3v4.9" stroke-miterlimit="10" stroke-width="3.5" stroke="#333" stroke-linecap="round" fill="none" style="stroke:rgb(51, 51, 51);animation-play-state:paused" ></path>
<path d="M54 63.7v5" stroke-miterlimit="10" stroke-width="3.5" stroke="#333" stroke-linecap="round" fill="none" style="stroke:rgb(51, 51, 51);animation-play-state:paused" ></path>
<path d="M62 68.3v4.9" stroke-miterlimit="10" stroke-width="3.5" stroke="#333" stroke-linecap="round" fill="none" style="stroke:rgb(51, 51, 51);animation-play-state:paused" ></path>
<path d="M70 63.7v5" stroke-miterlimit="10" stroke-width="3.5" stroke="#333" stroke-linecap="round" fill="none" style="stroke:rgb(51, 51, 51);animation-play-state:paused" ></path>
<path stroke-miterlimit="10" stroke-width="3.5" stroke="#000" opacity=".2" d="M87.1 53.3c1.6 0 2.9-1.3 2.9-2.9v-5.1c0-1.6-1.3-2.9-2.9-2.9h-1.5v-6.7c0-11.4-9.3-20.7-20.7-20.7H54.2c9.2 0 16.6 9.3 16.6 20.7v6.7H72c1.3 0 2.4 1.3 2.4 2.9v5.1c0 1.6-1.1 2.9-2.4 2.9h-1.2V63H72c1.3 0 2.4 1.3 2.4 2.9V71c0 1.6-1.1 2.9-2.4 2.9h-1.2v1.6c0 5.7-3.7 10.4-8.4 10.4h12.8c5.7 0 10.4-4.7 10.4-10.4V74h1.5c1.6 0 2.9-1.3 2.9-2.9V66c0-1.6-1.3-2.9-2.9-2.9h-1.5v-9.7h1.5z" style="animation-play-state:paused" ></path>
<metadata xmlns:d="https://loading.io/stock/" style="animation-play-state:paused" ><d:name style="animation-play-state:paused" >hamburger</d:name>
<d:tags style="animation-play-state:paused" >hamburger,sandwich,cheeseburger</d:tags>
<d:license style="animation-play-state:paused" >by</d:license>
<d:slug style="animation-play-state:paused" >hkoxq0</d:slug></metadata></g><!-- generated by https://loading.io/ --></svg>