<?xml version="1.0" encoding="utf-8"?><svg xml:space="preserve" viewBox="0 0 100 100" y="0" x="0" xmlns="http://www.w3.org/2000/svg" id="Layer_1" version="1.1" width="200px" height="200px" xmlns:xlink="http://www.w3.org/1999/xlink" style="width:100%;height:100%;background-size:initial;background-repeat-y:initial;background-repeat-x:initial;background-position-y:initial;background-position-x:initial;background-origin:initial;background-image:initial;background-color:rgb(255, 255, 255);background-clip:initial;background-attachment:initial;animation-play-state:paused" ><g class="ldl-scale" style="transform-origin:50% 50%;transform:rotate(0deg) scale(0.8, 0.8);animation-play-state:paused" ><path fill="#67503b" d="M85.1 59.4H17.4c-2.4 0-4.4-2-4.4-4.4 0-2.4 2-4.4 4.4-4.4h67.8c2.4 0 4.4 2 4.4 4.4-.1 2.4-2.1 4.4-4.5 4.4z" style="fill:rgb(103, 80, 59);animation-play-state:paused" ></path>
<path fill="#acbd81" d="M86.6 47.6c-.2-.1-.3-.3-.5-.3-.2-.1-.5-.2-.7-.2-3.4-.7-7.6-.1-11-.1h-57c-1.5 0-3.6-.3-4.9.5-1.1.7-1.7 2.1-2.3 3.2-1.2 2.1-2 4.3-2.4 6.7 3.3 2.5 8.1 1.9 11.9.1 3.8-1.7 7.2-4.3 11.2-5.5.1 3.1 2.3 6 5.2 7 2.9 1 6.4.1 8.4-2.3.6-.7 1.1-1.4 1.9-1.7 1.5-.5 2.9 1 4.1 2.1 3.8 3.4 10.5 2.7 13.5-1.4.4-.6.8-1.3 1.5-1.6.6-.3 1.4-.3 2.1-.2 2.9.4 5.8 1.1 8.5 2.2 1.8.7 4.6 1.2 5.2-.6 1.8 1.1 4.1 2 6.2 2 2.1 0 4.3-1.8 3.9-3.9-.2-1.4-1.4-2.3-2.4-3.1-.9-.8-1.6-2.2-2.4-2.9z" style="fill:rgb(172, 189, 129);animation-play-state:paused" ></path>
<path fill="#67503b" d="M85.1 46.9H14.9c-1.7 0-3.1-1.4-3.1-3.1 0-1.7 1.4-3.1 3.1-3.1h70.2c1.7 0 3.1 1.4 3.1 3.1 0 1.7-1.3 3.1-3.1 3.1z" style="fill:rgb(103, 80, 59);animation-play-state:paused" ></path>
<path d="M7.5 30.6h85v10h-85z" fill="#f4e6c8" style="fill:rgb(244, 230, 200);animation-play-state:paused" ></path>
<path d="M7.5 59.4h85v10h-85z" fill="#f4e6c8" style="fill:rgb(244, 230, 200);animation-play-state:paused" ></path>
<path fill="#f7b26a" d="M87.4 48c-.1.2-.4.2-.6.2l-2.4.3c-1.2.1-2.4.3-3.6.4-1.3.2-2.7.3-4 .5-1.2.2-2.5.3-3.7.5l-2.7.3c-.4 0-.7.1-1.1.1-1.3.2-2.7.2-4 .2h-1.5c-.6 0-1.1-.1-1.7-.1-.7 0-1.5-.1-2.2-.1-.9 0-1.8-.1-2.7-.1-1 0-2.1-.1-3.1-.1-1.1-.1-2.3-.1-3.4-.2-1.2-.1-2.4-.1-3.6-.2-1.3-.1-2.5-.1-3.8-.2-1.3-.1-2.6-.1-3.9-.2-1.3-.1-2.6-.1-3.9-.2-1.3-.1-2.6-.1-3.8-.2-1.2-.1-2.5-.1-3.7-.2-1.2-.1-2.3-.1-3.5-.2-1.1 0-2.1-.1-3.2-.1-.9 0-1.9-.1-2.8-.1-.8 0-1.6-.1-2.4-.1-.6 0-1.2-.1-1.8-.1-.4 0-.9-.1-1.3-.1-.1 0-.4 0-.5-.1v-.2-.8c0-.1 0-.2.1-.2.1-.1.8 0 .9 0H87c.2 0 .4 0 .6.1v.8c-.1.3-.1.3-.2.4z" style="fill:rgb(247, 178, 106);animation-play-state:paused" ></path>
<metadata xmlns:d="https://loading.io/stock/" style="animation-play-state:paused" ><d:name style="animation-play-state:paused" >sandwich</d:name>
<d:tags style="animation-play-state:paused" >sandwich,hamburger,salad,food</d:tags>
<d:license style="animation-play-state:paused" >by</d:license>
<d:slug style="animation-play-state:paused" >4lsn55</d:slug></metadata></g><!-- generated by https://loading.io/ --></svg>